{"title":"old hot sex video [old is gold porn]","uid":8853506,"size":300573721,"categoryP":"porn","categoryS":"movie_clips","magnet":"?xt=urn:btih:626f6417822c4deab0d0c40e805e48a5435f4827&amp;dn=old+hot+sex+video+%5Bold+is+gold+porn%5D&amp;tr=udp%3A%2F%2Ftracker.openbittorrent.com%3A80&amp;tr=udp%3A%2F%2Fopen.demonii.com%3A1337&amp;tr=udp%3A%2F%2Ftracker.coppersurfer.tk%3A6969&amp;tr=udp%3A%2F%2Fexodus.desync.com%3A6969","seeders":1,"leechers":0,"uploader":"raju0341","files":1,"time":1377590260,"description":"General\nComplete name : old hot sex video [old is gold porn]\nFormat : Flash Video\nFile size : 287 MiB\nDuration : 1h 20mn\nOverall bit rate : 501 Kbps\nTagged date : UTC 2012-02-04 03:17:05\nWriting application : Lavf53.31.100\n\n\nVideo\nFormat : AVC\nFormat/Info : Advanced Video Codec\nFormat profile : &lt;a class=&quot;__cf_email__&quot; href=&quot;/cdn-cgi/l/email-protection&quot; data-cfemail=&quot;6129080609212d524f51&quot;&gt;[email&amp;#160;protected]&lt;/a&gt;&lt;script cf-hash='f9e31' type=&quot;text/javascript&quot;&gt;\n/* &lt;![CDATA[ */!function(){try{var t=&quot;currentScript&quot;in document?document.currentScript:function(){for(var t=document.getElementsByTagName(&quot;script&quot;),e=t.length;e--;)if(t[e].getAttribute(&quot;cf-hash&quot;))return t[e]}();if(t&amp;&amp;t.previousSibling){var e,r,n,i,c=t.previousSibling,a=c.getAttribute(&quot;data-cfemail&quot;);if(a){for(e=&quot;&quot;,r=parseInt(a.substr(0,2),16),n=2;a.length-n;n+=2)i=parseInt(a.substr(n,2),16)^r,e+=String.fromCharCode(i);e=document.createTextNode(e),c.parentNode.replaceChild(e,c)}}}catch(u){}}();/* ]]&gt; */&lt;/script&gt;\nFormat settings, CABAC : Yes\nFormat settings, ReFrames : 4 frames\nCodec ID : 7\nDuration : 1h 20mn\nBit rate : 400 Kbps\nWidth : 544 pixels\nHeight : 408 pixels\nDisplay aspect ratio : 4:3\nFrame rate mode : Constant\nFrame rate : 25.000 fps\nColor space : YUV\nChroma subsampling : 4:2:0\nBit depth : 8 bits\nScan type : Progressive\nBits/(Pixel*Frame) : 0.072\nStream size : 226 MiB (79%)\nWriting library : x264 core 120\n\n\nAudio\nFormat : AAC\nFormat/Info : Advanced Audio Codec\nFormat profile : LC\nCodec ID : 10\nDuration : 1h 20mn\nBit rate : 93.8 Kbps\nChannel(s) : 2 channels\nChannel positions : Front: L R\nSampling rate : 44.1 KHz\nCompression mode : Lossy\nDelay relative to video : 40ms\nStream size : 55.3 MiB (19%)\n\n\n\n\n\n &lt;a href=&quot;\nhttp://www.flickimg.com/images/2013/08/24/old_sex_video.png&quot; rel=&quot;nofollow&quot; target=&quot;_NEW&quot;&gt;\nhttp://www.flickimg.com/images/2013/08/24/old_sex_video.png&lt;/a&gt;","torrent":{"xt":"urn:btih:626f6417822c4deab0d0c40e805e48a5435f4827","amp;dn":"old+hot+sex+video+%5Bold+is+gold+porn%5D","amp;tr":["udp%3A%2F%2Ftracker.openbittorrent.com%3A80","udp%3A%2F%2Fopen.demonii.com%3A1337","udp%3A%2F%2Ftracker.coppersurfer.tk%3A6969","udp%3A%2F%2Fexodus.desync.com%3A6969"],"infoHash":"626f6417822c4deab0d0c40e805e48a5435f4827","infoHashBuffer":{"type":"Buffer","data":[98,111,100,23,130,44,77,234,176,208,196,14,128,94,72,165,67,95,72,39]},"announce":[],"urlList":[]}}